<?xml version="1.0" encoding="UTF-8"?>
<!DOCTYPE svg PUBLIC "-//W3C//DTD SVG 1.0//EN" "http://www.w3.org/TR/2001/REC-SVG-20010904/DTD/svg10.dtd">
<!-- Creator: CorelDRAW -->
<svg xmlns="http://www.w3.org/2000/svg" xml:space="preserve" width="150mm" height="150mm" version="1.0" style="shape-rendering:geometricPrecision; text-rendering:geometricPrecision; image-rendering:optimizeQuality; fill-rule:evenodd; clip-rule:evenodd"
viewBox="0 0 14984.82 14984.82"
 xmlns:xlink="http://www.w3.org/1999/xlink"
 xmlns:xodm="http://www.corel.com/coreldraw/odm/2003">
 <defs>
  <style type="text/css">
   <![CDATA[
    .fil0 {fill:#FEFEFE}
   ]]>
  </style>
 </defs>
 <g id="Camada_x0020_1">
  <metadata id="CorelCorpID_0Corel-Layer"/>
  <path class="fil0" d="M14501.43 4933.68c-2222.34,-5960.95 -10059.06,-6649.63 -13337.35,-1358.76 -1877.61,3030.08 -1445.09,6952.73 1017.61,9529.22 631.46,660.65 1681.5,1419.61 2538.71,1703.92 291.18,96.56 855.5,418.17 897.16,-185.97 29.41,-426.67 -1.44,-995.01 -1.44,-1437.81 -297.31,0.16 -527.38,150.67 -1037.43,61.83 -292.81,-51.01 -654.11,-82.09 -908.83,-259.84 -285.28,-199.06 -233.58,-227.83 -404.09,-398.38 -151.23,-151.28 -143.36,-367.78 -323.27,-643.9 -90.78,-139.42 -94.59,-233.79 -220.7,-369.74 -253.81,-273.63 -1146.42,-908.64 -460.45,-911.59 1028.57,-4.33 1243.81,1173.37 1928.37,1519.13 575.09,290.44 1187.85,-31.75 1452.8,-54.47 0.22,-230.17 87.51,-385.41 161.58,-593.01 112.58,-315.5 202.89,-291.91 313.81,-463.93 -156.74,-0.12 -395.61,-22.5 -535.45,-73.83 -416.06,-152.73 -586.5,-36.26 -1375.05,-486.1 -678.16,-386.86 -1134.36,-1043.12 -1322.28,-1813.96 -232.03,-951.66 -286.23,-2009.23 187.26,-2892.34 168.07,-313.47 160.75,-236.79 250.42,-393.44 47.67,-83.38 82.15,-102.23 146.04,-175.35 -125.17,-1076.05 -197.03,-939.71 60.88,-2051.44 118.93,0.8 152.31,-35.56 260.39,-25.51 68.74,6.36 199.34,35.04 270.63,49.74 375.56,77.38 763.41,292.95 1110.84,459.05 129.61,53.57 76.97,60.97 184.61,135.76 355.8,247.22 579.03,57.09 974.15,5.49 967.35,-126.37 1331.11,-130.06 2297.68,-2.4 174.72,23.08 337.96,52.27 511.12,98.86 534.7,143.79 1393.38,-983.43 2296.9,-703.85 148.35,308.38 163.42,668.93 217.21,996.64 56.75,345.9 -93.94,717.07 -139.68,1037.65l276.4 339.72c1214.55,1658.35 326.98,4684.27 -1873.93,5300.56 -264.13,74.02 -790.26,194.55 -1051.49,194.74 74.75,111.02 125.01,136.62 221.8,287.3 95.25,148.3 89.86,224.27 154.72,356.2 269.44,547.83 17.56,2663.67 141.9,3025.2 109.32,317.87 454.83,281.48 690.92,146.93 172.1,-98.05 431.9,-157.49 717.66,-320.51l674.89 -364.43c974.61,-727.27 1382.71,-1064.46 2098.56,-2047.19 1450.29,-2106.94 1838.86,-4799.65 936.43,-7220.22z"/>
 </g>
</svg>
