<?xml version="1.0" encoding="UTF-8"?>
<!DOCTYPE svg PUBLIC "-//W3C//DTD SVG 1.0//EN" "http://www.w3.org/TR/2001/REC-SVG-20010904/DTD/svg10.dtd">
<!-- Creator: CorelDRAW -->
<svg xmlns="http://www.w3.org/2000/svg" xml:space="preserve" width="210mm" height="297mm" version="1.0" style="shape-rendering:geometricPrecision; text-rendering:geometricPrecision; image-rendering:optimizeQuality; fill-rule:evenodd; clip-rule:evenodd"
viewBox="0 0 21000 29700"
 xmlns:xlink="http://www.w3.org/1999/xlink"
 xmlns:xodm="http://www.corel.com/coreldraw/odm/2003">
 <defs>
  <style type="text/css">
   <![CDATA[
    .fil0 {fill:#FEFEFE}
   ]]>
  </style>
 </defs>
 <g id="Camada_x0020_1">
  <metadata id="CorelCorpID_0Corel-Layer"/>
  <path class="fil0" d="M17516.12 12288.68c-2224.59,-5966.99 -10069.25,-6656.37 -13350.86,-1360.14 -1879.51,3033.15 -1446.55,6959.77 1018.64,9538.87 632.1,661.32 1683.2,1421.05 2541.28,1705.65 291.47,96.66 856.37,418.59 898.07,-186.16 29.44,-427.1 -1.44,-996.02 -1.44,-1439.27 -297.61,0.16 -527.91,150.82 -1038.48,61.89 -293.11,-51.06 -654.77,-82.17 -909.75,-260.1 -285.57,-199.26 -233.82,-228.06 -404.5,-398.78 -151.38,-151.43 -143.51,-368.15 -323.6,-644.55 -90.87,-139.56 -94.69,-234.03 -220.92,-370.11 -254.07,-273.91 -1147.58,-909.56 -460.92,-912.51 1029.61,-4.33 1245.07,1174.56 1930.32,1520.67 575.67,290.73 1189.05,-31.78 1454.27,-54.53 0.22,-230.4 87.6,-385.8 161.74,-593.61 112.69,-315.82 203.1,-292.21 314.13,-464.4 -156.9,-0.12 -396.01,-22.52 -535.99,-73.9 -416.48,-152.88 -587.09,-36.3 -1376.44,-486.59 -678.85,-387.25 -1135.51,-1044.18 -1323.62,-1815.8 -232.27,-952.62 -286.52,-2011.27 187.45,-2895.27 168.24,-313.79 160.91,-237.03 250.67,-393.84 47.72,-83.46 82.23,-102.33 146.19,-175.53 -125.3,-1077.14 -197.23,-940.66 60.94,-2053.52 119.05,0.8 152.46,-35.6 260.65,-25.54 68.81,6.37 199.54,35.08 270.9,49.79 375.94,77.46 764.18,293.25 1111.97,459.52 129.74,53.62 77.05,61.03 184.8,135.9 356.16,247.47 579.62,57.15 975.14,5.5 968.33,-126.5 1332.46,-130.19 2300.01,-2.4 174.9,23.1 338.3,52.32 511.64,98.96 535.24,143.94 1394.79,-984.43 2299.23,-704.56 148.5,308.69 163.59,669.61 217.43,997.65 56.81,346.25 -94.04,717.8 -139.82,1038.7l276.68 340.06c1215.78,1660.03 327.31,4689.02 -1875.83,5305.93 -264.4,74.09 -791.06,194.75 -1052.56,194.94 74.83,111.13 125.14,136.76 222.02,287.59 95.35,148.45 89.95,224.5 154.88,356.56 269.71,548.38 17.58,2666.37 142.04,3028.26 109.43,318.19 455.29,281.77 691.62,147.08 172.27,-98.15 432.34,-157.65 718.39,-320.83l675.57 -364.8c975.6,-728.01 1384.11,-1065.54 2100.69,-2049.26 1451.76,-2109.07 1840.72,-4804.51 937.38,-7227.53l-0.01 0.01z"/>
 </g>
</svg>
