<?xml version="1.0" encoding="UTF-8"?>
<!DOCTYPE svg PUBLIC "-//W3C//DTD SVG 1.0//EN" "http://www.w3.org/TR/2001/REC-SVG-20010904/DTD/svg10.dtd">
<!-- Creator: CorelDRAW -->
<svg xmlns="http://www.w3.org/2000/svg" xml:space="preserve" width="150mm" height="150mm" version="1.0" style="shape-rendering:geometricPrecision; text-rendering:geometricPrecision; image-rendering:optimizeQuality; fill-rule:evenodd; clip-rule:evenodd"
viewBox="0 0 14984.82 14984.82"
 xmlns:xlink="http://www.w3.org/1999/xlink"
 xmlns:xodm="http://www.corel.com/coreldraw/odm/2003">
 <defs>
  <style type="text/css">
   <![CDATA[
    .fil0 {fill:#FEFEFE}
   ]]>
  </style>
 </defs>
 <g id="Camada_x0020_1">
  <metadata id="CorelCorpID_0Corel-Layer"/>
  <path class="fil0" d="M7492.41 0c4137.95,0 7492.41,3354.46 7492.41,7492.41 0,4137.95 -3354.46,7492.41 -7492.41,7492.41 -4137.95,0 -7492.41,-3354.46 -7492.41,-7492.41 0,-4137.95 3354.46,-7492.41 7492.41,-7492.41zm-26.73 8989.43c-841.54,0 -1523.74,-682.21 -1523.74,-1523.76 0,-841.54 682.2,-1523.74 1523.74,-1523.74 841.55,0 1523.76,682.2 1523.76,1523.74 0,841.55 -682.21,1523.76 -1523.76,1523.76zm2323.16 -1523.75c0,-1283.04 -1040.11,-2323.15 -2323.15,-2323.15 -1283.04,0 -2323.15,1040.11 -2323.15,2323.15 0,1283.04 1040.11,2323.15 2323.15,2323.15 1283.04,0 2323.15,-1040.11 2323.15,-2323.15zm-5974.83 1803.12l0 -3576.89c0,-1053.2 861.7,-1914.9 1914.9,-1914.9l3490.89 0c1073.06,0 1951.02,877.96 1951.02,1951.02l0 3480.56c0,1099.55 -899.65,1999.18 -1999.19,1999.18l-3418.64 0c-1066.44,0 -1938.99,-872.55 -1938.99,-1938.99zm-805.35 388.92c0,1299.94 1063.57,2363.51 2363.5,2363.51l4167.12 0c1340.29,0 2436.9,-1096.61 2436.9,-2436.91l0 -4242.56c0,-1308 -1070.19,-2378.19 -2378.19,-2378.19l-4255.18 0c-1283.79,0 -2334.15,1050.37 -2334.15,2334.14l0 4360zm6891.88 -5156.51c306.03,0 554.11,248.08 554.11,554.1 0,306.03 -248.08,554.11 -554.11,554.11 -306.02,0 -554.1,-248.08 -554.1,-554.11 0,-306.02 248.08,-554.1 554.1,-554.1z"/>
 </g>
</svg>
