<?xml version="1.0" encoding="UTF-8"?>
<!DOCTYPE svg PUBLIC "-//W3C//DTD SVG 1.0//EN" "http://www.w3.org/TR/2001/REC-SVG-20010904/DTD/svg10.dtd">
<!-- Creator: CorelDRAW -->
<svg xmlns="http://www.w3.org/2000/svg" xml:space="preserve" width="210mm" height="297mm" version="1.0" style="shape-rendering:geometricPrecision; text-rendering:geometricPrecision; image-rendering:optimizeQuality; fill-rule:evenodd; clip-rule:evenodd"
viewBox="0 0 21000 29700"
 xmlns:xlink="http://www.w3.org/1999/xlink"
 xmlns:xodm="http://www.corel.com/coreldraw/odm/2003">
 <defs>
  <style type="text/css">
   <![CDATA[
    .fil0 {fill:#FEFEFE}
   ]]>
  </style>
 </defs>
 <g id="Camada_x0020_1">
  <metadata id="CorelCorpID_0Corel-Layer"/>
  <path class="fil0" d="M10500 7350c4142.14,0 7500,3357.86 7500,7500 0,4142.14 -3357.86,7500 -7500,7500 -4142.14,0 -7500,-3357.86 -7500,-7500 0,-4142.14 3357.86,-7500 7500,-7500zm-26.76 8998.54c-842.39,0 -1525.28,-682.9 -1525.28,-1525.3 0,-842.39 682.89,-1525.28 1525.28,-1525.28 842.4,0 1525.3,682.89 1525.3,1525.28 0,842.4 -682.9,1525.3 -1525.3,1525.3zm2325.52 -1525.3c0,-1284.34 -1041.16,-2325.5 -2325.5,-2325.5 -1284.34,0 -2325.5,1041.16 -2325.5,2325.5 0,1284.34 1041.16,2325.5 2325.5,2325.5 1284.34,0 2325.5,-1041.16 2325.5,-2325.5zm-5980.89 1804.95l0 -3580.51c0,-1054.27 862.57,-1916.84 1916.84,-1916.84l3494.43 0c1074.15,0 1953,878.85 1953,1953l0 3484.09c0,1100.66 -900.56,2001.21 -2001.22,2001.21l-3422.1 0c-1067.52,0 -1940.95,-873.43 -1940.95,-1940.95zm-806.16 389.31c0,1301.26 1064.65,2365.9 2365.89,2365.9l4171.34 0c1341.65,0 2439.37,-1097.72 2439.37,-2439.38l0 -4246.86c0,-1309.33 -1071.27,-2380.6 -2380.6,-2380.6l-4259.49 0c-1285.09,0 -2336.51,1051.43 -2336.51,2336.5l0 4364.42 0 0.02zm6898.86 -5161.73c306.34,0 554.67,248.33 554.67,554.66 0,306.34 -248.33,554.67 -554.67,554.67 -306.33,0 -554.66,-248.33 -554.66,-554.67 0,-306.33 248.33,-554.66 554.66,-554.66z"/>
 </g>
</svg>
