<?xml version="1.0" encoding="UTF-8"?>
<!DOCTYPE svg PUBLIC "-//W3C//DTD SVG 1.0//EN" "http://www.w3.org/TR/2001/REC-SVG-20010904/DTD/svg10.dtd">
<!-- Creator: CorelDRAW -->
<svg xmlns="http://www.w3.org/2000/svg" xml:space="preserve" width="210mm" height="297mm" version="1.0" style="shape-rendering:geometricPrecision; text-rendering:geometricPrecision; image-rendering:optimizeQuality; fill-rule:evenodd; clip-rule:evenodd"
viewBox="0 0 21000 29700"
 xmlns:xlink="http://www.w3.org/1999/xlink"
 xmlns:xodm="http://www.corel.com/coreldraw/odm/2003">
 <defs>
  <style type="text/css">
   <![CDATA[
    .fil0 {fill:#FEFEFE}
   ]]>
  </style>
 </defs>
 <g id="Camada_x0020_1">
  <metadata id="CorelCorpID_0Corel-Layer"/>
  <path class="fil0" d="M10500 7350c4142.13,0 7500,3357.86 7500,7500 0,4142.13 -3357.87,7500 -7500,7500 -4142.14,0 -7500,-3357.87 -7500,-7500 0,-4142.14 3357.86,-7500 7500,-7500zm-3194.81 4601.95c599.02,0 1084.62,-470.61 1084.62,-1051.15 0,-580.55 -485.6,-1051.16 -1084.62,-1051.16 -599.01,0 -1084.62,470.61 -1084.62,1051.16 0,580.54 485.61,1051.15 1084.62,1051.15zm911.97 6650.29l0 -5865.07 -1823.1 0 0 5865.07 1823.1 0zm1116.53 -5869.08l0 5900.97 1824.08 0 0 -3491.99 0 -7.78c17.73,-129.9 165.64,-479.39 354.39,-609.19 815.79,-560.99 1547.15,-273.24 1675.41,679.32l0 3429.64 1824.09 0 0 -3951.35c-87.61,-1192.03 -648.59,-1984.02 -2019.06,-2091.9 -754.94,-38.99 -1365.35,273.51 -1834.83,903.04l0 -760.76 -1824.08 0z"/>
 </g>
</svg>
