<?xml version="1.0" encoding="UTF-8"?>
<!DOCTYPE svg PUBLIC "-//W3C//DTD SVG 1.0//EN" "http://www.w3.org/TR/2001/REC-SVG-20010904/DTD/svg10.dtd">
<!-- Creator: CorelDRAW -->
<svg xmlns="http://www.w3.org/2000/svg" xml:space="preserve" width="150mm" height="150mm" version="1.0" style="shape-rendering:geometricPrecision; text-rendering:geometricPrecision; image-rendering:optimizeQuality; fill-rule:evenodd; clip-rule:evenodd"
viewBox="0 0 14984.82 14984.82"
 xmlns:xlink="http://www.w3.org/1999/xlink"
 xmlns:xodm="http://www.corel.com/coreldraw/odm/2003">
 <defs>
  <style type="text/css">
   <![CDATA[
    .fil0 {fill:#FEFEFE}
   ]]>
  </style>
 </defs>
 <g id="Camada_x0020_1">
  <metadata id="CorelCorpID_0Corel-Layer"/>
  <path class="fil0" d="M7492.41 0c4137.94,0 7492.41,3354.46 7492.41,7492.41 0,4137.94 -3354.47,7492.41 -7492.41,7492.41 -4137.95,0 -7492.41,-3354.47 -7492.41,-7492.41 0,-4137.95 3354.46,-7492.41 7492.41,-7492.41zm-3191.58 4597.29c598.41,0 1083.52,-470.13 1083.52,-1050.09 0,-579.96 -485.11,-1050.1 -1083.52,-1050.1 -598.4,0 -1083.52,470.13 -1083.52,1050.1 0,579.95 485.12,1050.09 1083.52,1050.09zm911.05 6643.56l0 -5859.13 -1821.26 0 0 5859.13 1821.26 0zm1115.4 -5863.14l0 5895 1822.23 0 0 -3488.46 0 -7.77c17.71,-129.77 165.47,-478.9 354.03,-608.57 814.96,-560.42 1545.58,-272.96 1673.71,678.63l0 3426.17 1822.24 0 0 -3947.35c-87.52,-1190.82 -647.93,-1982.01 -2017.02,-2089.78 -754.18,-38.95 -1363.97,273.23 -1832.97,902.13l0 -759.99 -1822.23 0z"/>
 </g>
</svg>
