<?xml version="1.0" encoding="UTF-8"?>
<!DOCTYPE svg PUBLIC "-//W3C//DTD SVG 1.0//EN" "http://www.w3.org/TR/2001/REC-SVG-20010904/DTD/svg10.dtd">
<!-- Creator: CorelDRAW -->
<svg xmlns="http://www.w3.org/2000/svg" xml:space="preserve" width="150mm" height="203.184mm" version="1.0" style="shape-rendering:geometricPrecision; text-rendering:geometricPrecision; image-rendering:optimizeQuality; fill-rule:evenodd; clip-rule:evenodd"
viewBox="0 0 14998.94 20316.97"
 xmlns:xlink="http://www.w3.org/1999/xlink"
 xmlns:xodm="http://www.corel.com/coreldraw/odm/2003">
 <defs>
  <style type="text/css">
   <![CDATA[
    .fil0 {fill:#FEFEFE}
   ]]>
  </style>
 </defs>
 <g id="Camada_x0020_1">
  <metadata id="CorelCorpID_0Corel-Layer"/>
  <g id="_2304206080640">
   <path class="fil0" d="M9066.01 2280.32c1096.59,363.69 2018.78,838.51 2698.1,1562.13 676.35,720.47 1111.87,1688.12 1283.4,2794.38 112.44,-425.04 185.66,-1246.36 89.8,-1766.4 -168.06,-911.78 -606.01,-1588.89 -1207.14,-2105.82 -619.05,-532.33 -1411.79,-892.81 -2304.94,-1024.38 -660.95,-97.36 -1434.16,39.51 -2015.22,150.97 567.12,93.52 971.81,228.52 1456,389.11z"/>
   <path class="fil0" d="M4102.31 5908.32c0,-2754.97 2233.34,-4988.31 4988.31,-4988.31 2754.97,0 4988.31,2233.34 4988.31,4988.31 0,2754.97 -2233.34,4988.31 -4988.31,4988.31 -2754.97,0 -4988.31,-2233.34 -4988.31,-4988.31zm233.04 11387.05c175.91,-311.79 352.54,-624.55 529.97,-925.92 637.68,-1083.04 1172.26,-1676.43 1429.9,-2573.46 109.54,-381.4 -151.82,-1497.25 -129.81,-1873.76 10.9,-186.54 103.38,-264.79 154.23,-344.78 35.17,-55.32 214.98,-204.95 275.03,-271.78 19.73,-22.01 72.2,-7.86 95.39,2.48 733.49,326.71 1545.76,508.49 2400.55,508.49 3263.08,0 5908.32,-2645.24 5908.32,-5908.32 0,-3263.08 -2645.24,-5908.32 -5908.32,-5908.32 -3263.07,0 -5908.32,2645.24 -5908.32,5908.32 0,2976.98 1293.07,2982.41 2197.73,4790.45 24.59,49.15 45.19,95.7 56.11,133.14 41.39,141.97 -19.43,264.71 -39.82,326.37 -57.29,173.17 -197.92,247.89 -269.6,293.88 -187.48,120.27 -644.52,207.84 -1019.22,333.7 -170.29,57.21 -339.47,94.36 -430.67,195.25 -563.01,622.75 -1139.49,1794.59 -1674.23,2702.82 -774.71,1315.78 -1758.97,2691.06 -1961.84,3684.7 -95.35,467.05 -15.41,851.2 156.86,1137.25 157.09,260.83 394.63,439.1 573.08,544.17 60.36,35.54 129.72,77.69 209.74,113.23 322.62,143.3 845,281.74 1404.53,-55.87 7.74,-4.67 14.42,-11.03 21.61,-16.71 211.29,-166.8 428.92,-340.11 641.07,-623.8 184.63,-246.88 363.65,-592.74 549.29,-896.09 245,-400.38 491.02,-836.97 738.42,-1275.45zm1757.01 -6295.42c4.1,2.42 8.18,4.85 12.28,7.26l-7.41 -3.88 -4.87 -3.38z"/>
  </g>
 </g>
</svg>
