<?xml version="1.0" encoding="UTF-8"?>
<!DOCTYPE svg PUBLIC "-//W3C//DTD SVG 1.0//EN" "http://www.w3.org/TR/2001/REC-SVG-20010904/DTD/svg10.dtd">
<!-- Creator: CorelDRAW -->
<svg xmlns="http://www.w3.org/2000/svg" xml:space="preserve" width="210mm" height="297mm" version="1.0" style="shape-rendering:geometricPrecision; text-rendering:geometricPrecision; image-rendering:optimizeQuality; fill-rule:evenodd; clip-rule:evenodd"
viewBox="0 0 21000 29700"
 xmlns:xlink="http://www.w3.org/1999/xlink"
 xmlns:xodm="http://www.corel.com/coreldraw/odm/2003">
 <defs>
  <style type="text/css">
   <![CDATA[
    .fil0 {fill:#FEFEFE}
   ]]>
  </style>
 </defs>
 <g id="Camada_x0020_1">
  <metadata id="CorelCorpID_0Corel-Layer"/>
  <g id="_2304206080640">
   <path class="fil0" d="M12066.65 6971.28c1096.67,363.72 2018.92,838.57 2698.29,1562.24 676.4,720.52 1111.95,1688.24 1283.49,2794.58 112.45,-425.07 185.67,-1246.45 89.81,-1766.52 -168.07,-911.84 -606.05,-1589 -1207.22,-2105.97 -619.09,-532.37 -1411.89,-892.87 -2305.1,-1024.45 -661,-97.37 -1434.26,39.51 -2015.36,150.98 567.16,93.53 971.88,228.54 1456.1,389.14l-0.01 0z"/>
   <path class="fil0" d="M7102.6 10599.54c0,-2755.16 2233.5,-4988.66 4988.66,-4988.66 2755.16,0 4988.66,2233.5 4988.66,4988.66 0,2755.16 -2233.5,4988.66 -4988.66,4988.66 -2755.16,0 -4988.66,-2233.5 -4988.66,-4988.66zm233.06 11387.85c175.92,-311.81 352.56,-624.59 530.01,-925.99 637.72,-1083.12 1172.34,-1676.55 1430,-2573.64 109.55,-381.43 -151.83,-1497.36 -129.82,-1873.89 10.9,-186.55 103.39,-264.81 154.24,-344.8 35.17,-55.32 215,-204.96 275.05,-271.8 19.73,-22.01 72.21,-7.86 95.4,2.48 733.54,326.73 1545.87,508.53 2400.72,508.53 3263.31,0 5908.74,-2645.43 5908.74,-5908.74 0,-3263.31 -2645.43,-5908.74 -5908.74,-5908.74 -3263.3,0 -5908.74,2645.43 -5908.74,5908.74 0,2977.19 1293.16,2982.62 2197.88,4790.79 24.59,49.15 45.19,95.71 56.11,133.15 41.39,141.98 -19.43,264.73 -39.82,326.39 -57.29,173.18 -197.93,247.91 -269.62,293.9 -187.49,120.28 -644.57,207.85 -1019.29,333.72 -170.3,57.21 -339.49,94.37 -430.7,195.26 -563.05,622.79 -1139.57,1794.72 -1674.35,2703.01 -774.76,1315.87 -1759.09,2691.25 -1961.98,3684.96 -95.36,467.08 -15.41,851.26 156.87,1137.33 157.1,260.85 394.66,439.13 573.12,544.21 60.36,35.54 129.73,77.7 209.75,113.24 322.64,143.31 845.06,281.76 1404.63,-55.87 7.74,-4.67 14.42,-11.03 21.61,-16.71 211.3,-166.81 428.95,-340.13 641.12,-623.84 184.64,-246.9 363.68,-592.78 549.33,-896.15 245.02,-400.41 491.05,-837.03 738.47,-1275.54l0.01 0zm1757.13 -6295.87c4.1,2.42 8.18,4.85 12.28,7.26l-7.41 -3.88 -4.87 -3.38z"/>
  </g>
 </g>
</svg>
