<?xml version="1.0" encoding="UTF-8"?>
<!DOCTYPE svg PUBLIC "-//W3C//DTD SVG 1.0//EN" "http://www.w3.org/TR/2001/REC-SVG-20010904/DTD/svg10.dtd">
<!-- Creator: CorelDRAW -->
<svg xmlns="http://www.w3.org/2000/svg" xml:space="preserve" width="75.669mm" height="59.7061mm" version="1.0" style="shape-rendering:geometricPrecision; text-rendering:geometricPrecision; image-rendering:optimizeQuality; fill-rule:evenodd; clip-rule:evenodd"
viewBox="0 0 1028.55 811.57"
 xmlns:xlink="http://www.w3.org/1999/xlink"
 xmlns:xodm="http://www.corel.com/coreldraw/odm/2003">
 <defs>
  <style type="text/css">
   <![CDATA[
    .str2 {stroke:#FEFEFE;stroke-width:2.72;stroke-miterlimit:22.9256}
    .str0 {stroke:black;stroke-width:2.72;stroke-miterlimit:22.9256}
    .str1 {stroke:#1E5994;stroke-width:2.72;stroke-miterlimit:22.9256}
    .str3 {stroke:#6B809B;stroke-width:1.04;stroke-miterlimit:22.9256}
    .fil2 {fill:none}
    .fil7 {fill:none;fill-rule:nonzero}
    .fil3 {fill:#FEFEFE}
    .fil1 {fill:#FEFEFE}
    .fil5 {fill:#78889C}
    .fil8 {fill:#3C3C79}
    .fil6 {fill:#3E4095}
    .fil4 {fill:#040478}
    .fil0 {fill:#1E5994}
    .fil9 {fill:black;fill-rule:nonzero}
   ]]>
  </style>
   <clipPath id="id0">
    <path d="M226.2 469.1l564.94 2.99c39.03,0.21 52.19,4.82 61.96,13.63l136.91 123.55c9.76,8.81 9.97,19.48 -29.05,19.57l-317.17 0.74 0.59 36.48 -260.64 -0.91 -0.28 -35.55 -312.66 0.42c-39.02,0.05 -31.73,-16.29 -22.25,-25.41l122.77 -118.14c9.48,-9.12 15.86,-17.58 54.89,-17.38z"/>
   </clipPath>
 </defs>
 <g id="Camada_x0020_1">
  <metadata id="CorelCorpID_0Corel-Layer"/>
  <path class="fil0" d="M65.85 686.66l925.08 0.44c41.06,0.02 50.69,-52.26 18.04,-82.48l-164.81 -152.5 0 -355.26c0,-41.11 -35.51,-74.6 -76.11,-74.6l-506.79 0c-33.09,0 -70.09,22.96 -70.09,59.62l0 372.98 0.14 0 -166.37 144.54c-51.86,45.06 -15.29,87.24 40.91,87.26z"/>
  <path class="fil1" d="M302.37 54.05l426.06 0c30.21,0 54.93,24.72 54.93,54.93l0 243.72c0,30.21 -24.72,54.93 -54.93,54.93l-426.06 0c-30.21,0 -54.93,-24.72 -54.93,-54.93l0 -243.72c0,-30.21 24.72,-54.93 54.93,-54.93z"/>
  <g>
  </g>
  <g style="clip-path:url(#id0)">
  </g>
  <path class="fil2 str0" d="M226.2 469.1l564.94 2.99c39.03,0.21 52.19,4.82 61.96,13.63l136.91 123.55c9.76,8.81 9.97,19.48 -29.05,19.57l-317.17 0.74 0.59 36.48 -260.64 -0.91 -0.28 -35.55 -312.66 0.42c-39.02,0.05 -31.73,-16.29 -22.25,-25.41l122.77 -118.14c9.48,-9.12 15.86,-17.58 54.89,-17.38z"/>
  <polygon class="fil3" points="201.87,503.39 829.72,505.03 900.47,595.28 129.08,592.66 "/>
  <g id="_1904421332752">
   <polygon class="fil0 str1" points="225.49,521.57 249.97,521.54 243.4,533.09 217.94,533.3 "/>
   <polygon class="fil0 str1" points="209.6,546.44 234.08,546.41 227.51,557.96 202.06,558.17 "/>
   <polygon class="fil0 str1" points="196.42,570.56 220.9,570.53 214.33,582.08 188.88,582.29 "/>
   <polygon class="fil0 str1" points="267.65,521.57 292.13,521.54 285.56,533.09 260.1,533.3 "/>
   <polygon class="fil0 str1" points="251.76,546.44 276.24,546.41 269.67,557.96 244.22,558.17 "/>
   <polygon class="fil0 str1" points="238.58,570.56 263.06,570.53 256.49,582.08 231.04,582.29 "/>
   <polygon class="fil0 str1" points="311.75,521.57 336.23,521.54 329.66,533.09 304.21,533.3 "/>
   <polygon class="fil0 str1" points="295.87,546.44 320.35,546.41 313.78,557.96 288.32,558.17 "/>
   <polygon class="fil0 str1" points="282.69,570.56 307.17,570.53 300.6,582.08 275.14,582.29 "/>
   <polygon class="fil0 str1" points="353.91,521.57 378.39,521.54 371.82,533.09 346.37,533.3 "/>
   <polygon class="fil0 str1" points="338.02,546.44 362.51,546.41 355.94,557.96 330.48,558.17 "/>
   <polygon class="fil0 str1" points="324.85,570.56 349.33,570.53 342.76,582.08 317.3,582.29 "/>
   <polygon class="fil0 str1" points="402.24,521.57 426.72,521.54 420.15,533.09 394.69,533.3 "/>
   <polygon class="fil0 str1" points="386.35,546.44 410.83,546.41 404.26,557.96 378.81,558.17 "/>
   <polygon class="fil0 str1" points="373.17,570.56 397.65,570.53 391.08,582.08 365.63,582.29 "/>
   <polygon class="fil0 str1" points="444.4,521.57 468.88,521.54 462.31,533.09 436.85,533.3 "/>
   <polygon class="fil0 str1" points="428.51,546.44 452.99,546.41 446.42,557.96 420.96,558.17 "/>
   <polygon class="fil0 str1" points="415.33,570.56 439.81,570.53 433.24,582.08 407.79,582.29 "/>
  </g>
  <g id="_1904421343456">
   <polygon class="fil0 str1" points="802.5,521.57 778.02,521.54 784.59,533.09 810.05,533.3 "/>
   <polygon class="fil0 str1" points="818.39,546.44 793.91,546.41 800.48,557.96 825.93,558.17 "/>
   <polygon class="fil0 str1" points="831.57,570.56 807.09,570.53 813.66,582.08 839.11,582.29 "/>
   <polygon class="fil0 str1" points="760.34,521.57 735.86,521.54 742.43,533.09 767.89,533.3 "/>
   <polygon class="fil0 str1" points="776.23,546.44 751.75,546.41 758.32,557.96 783.77,558.17 "/>
   <polygon class="fil0 str1" points="789.41,570.56 764.93,570.53 771.5,582.08 796.95,582.29 "/>
   <polygon class="fil0 str1" points="716.24,521.57 691.76,521.54 698.33,533.09 723.78,533.3 "/>
   <polygon class="fil0 str1" points="732.12,546.44 707.64,546.41 714.21,557.96 739.67,558.17 "/>
   <polygon class="fil0 str1" points="745.3,570.56 720.82,570.53 727.39,582.08 752.85,582.29 "/>
   <polygon class="fil0 str1" points="674.08,521.57 649.6,521.54 656.17,533.09 681.62,533.3 "/>
   <polygon class="fil0 str1" points="689.97,546.44 665.48,546.41 672.05,557.96 697.51,558.17 "/>
   <polygon class="fil0 str1" points="703.14,570.56 678.66,570.53 685.23,582.08 710.69,582.29 "/>
   <polygon class="fil0 str1" points="625.75,521.57 601.27,521.54 607.84,533.09 633.3,533.3 "/>
   <polygon class="fil0 str1" points="641.64,546.44 617.16,546.41 623.73,557.96 649.18,558.17 "/>
   <polygon class="fil0 str1" points="654.82,570.56 630.34,570.53 636.91,582.08 662.36,582.29 "/>
   <polygon class="fil0 str1" points="583.59,521.57 559.11,521.54 565.68,533.09 591.14,533.3 "/>
   <polygon class="fil0 str1" points="599.48,546.44 575,546.41 581.57,557.96 607.03,558.17 "/>
   <polygon class="fil0 str1" points="612.66,570.56 588.18,570.53 594.75,582.08 620.2,582.29 "/>
  </g>
  <g id="_1904421344080">
   <polygon class="fil0 str1" points="493.88,519.58 533.78,519.58 543.87,531.9 484.47,531.9 "/>
   <polygon class="fil0 str1" points="481.99,546.16 545.26,546.16 561.27,558.47 467.08,558.47 "/>
   <polygon class="fil0 str1" points="471.52,568.58 555.37,568.58 576.58,580.89 451.76,580.89 "/>
  </g>
  <path class="fil3 str2" d="M638.95 656.14l-251.68 -0.84 -0.27 -32.62 -301.92 0.38c-37.68,0.05 -30.64,-14.95 -21.49,-23.32l118.55 -108.41c9.15,-8.37 15.32,-16.14 53.01,-15.95l410.41 2.06 135.12 0.68c37.69,0.19 50.4,4.43 59.83,12.51l132.21 113.38c9.43,8.08 9.63,17.88 -28.05,17.96l-299.1 0.66 -7.17 0.02 0.57 33.48zm6.6 -184.82l-419.36 -2.22c-39.03,-0.21 -45.41,8.26 -54.89,17.38l-122.77 118.14c-9.48,9.12 -16.77,25.46 22.25,25.41l312.66 -0.42 0.28 35.55 260.64 0.91 -0.59 -36.48 1.77 -0 315.4 -0.74c39.02,-0.09 38.81,-10.76 29.05,-19.57l-136.91 -123.55c-9.77,-8.81 -22.93,-13.43 -61.96,-13.63l-145.58 -0.77z"/>
  <path class="fil4" d="M590.54 157.65c18.42,0 33.52,14.88 33.35,33.35 -0.07,7.68 -8.69,20.35 -15.8,20.37 -44.41,0.12 -88.25,0.22 -132.74,0.11l-43.82 -0.11c-7.11,-0.02 -15.73,-12.69 -15.8,-20.37 -0.17,-18.47 14.93,-33.35 33.35,-33.35 1.92,0 3.8,0.16 5.62,0.47 -0.94,-3.08 -1.44,-6.35 -1.44,-9.74 0,-18.42 14.93,-33.35 33.35,-33.35 15.54,0 28.59,10.63 32.3,25.01 3.7,-14.38 16.76,-25.01 32.3,-25.01 18.42,0 33.35,14.93 33.35,33.35 0,3.53 -0.55,6.93 -1.57,10.13 2.43,-0.56 4.97,-0.86 7.57,-0.86z"/>
  <g id="_1904421347968">
   <polygon class="fil5 str3" points="328.17,120.95 524.5,0.61 720.83,118.14 527.27,226.61 "/>
   <polygon class="fil5 str3" points="323.79,348.52 328.17,120.95 527.27,226.61 723.57,116.61 727.49,349.87 527.47,463.34 "/>
   <polygon class="fil2 str3" points="576.03,112.88 526.6,86.43 478.12,115.08 525.65,139.95 "/>
   <polygon class="fil6 str3" points="377.3,147.02 439.71,109.41 391.58,82.08 328.17,120.95 "/>
   <polygon class="fil6 str3" points="473.99,31.57 528.53,62.98 577.66,31.82 524.5,0.61 "/>
   <polygon class="fil6 str3" points="664.52,84.43 615.69,112.97 674.34,144.19 723.56,116.61 "/>
   <polygon class="fil0 str3" points="589.56,99.65 641.19,69.12 601.46,45.8 548.95,77.3 "/>
   <polygon class="fil0 str3" points="505.19,156.95 457.97,128.3 404.05,161.22 453.94,187.7 "/>
   <polygon class="fil0 str3" points="478.12,115.08 525.65,139.95 576.03,112.88 526.6,86.43 "/>
   <polygon class="fil0 str3" points="596.71,129.76 549.74,157.76 600.08,186.16 648.75,158.54 "/>
   <polygon class="fil6 str3" points="578.55,198.12 527.21,169.3 476.33,199.58 527.27,226.61 "/>
   <polygon class="fil0 str3" points="414.08,68.29 463.98,99.09 506.84,76.8 454.05,43.79 "/>
   <polygon class="fil6 str3" points="377.3,378.68 377.3,147.02 328.17,120.95 323.8,348.52 "/>
   <g>
    <polygon class="fil0" points="404.05,161.22 404.05,276.66 453.94,310.39 453.94,187.51 "/>
    <polygon id="_1" class="fil7 str3" points="404.05,161.22 404.05,276.66 453.94,310.39 453.94,187.51 "/>
   </g>
   <polygon class="fil6 str3" points="476.33,199.58 476.33,434.51 527.47,463.34 578.55,434.36 578.55,198.12 527.27,226.61 "/>
   <polygon class="fil6 str3" points="674.34,144.19 674.72,379.81 727.49,349.87 723.57,116.61 "/>
   <line class="fil2 str3" x1="527.27" y1="226.61" x2="527.47" y2= "463.34" />
   <g>
    <polygon class="fil0" points="404.05,305.96 404.05,393.77 453.94,421.89 453.94,338.75 "/>
    <polygon id="_1_0" class="fil7 str3" points="404.05,305.96 404.05,393.77 453.94,421.89 453.94,338.75 "/>
   </g>
   <g>
    <polygon class="fil0" points="648.75,158.54 651.39,275.02 601.51,308.75 603.08,184.58 "/>
    <polygon id="_1_1" class="fil7 str3" points="648.75,158.54 651.39,275.02 601.51,308.75 603.08,184.58 "/>
   </g>
   <g>
    <polygon class="fil0" points="656.75,301.82 656.75,389.63 606.87,417.75 606.87,334.61 "/>
    <polygon id="_1_2" class="fil7 str3" points="656.75,301.82 656.75,389.63 606.87,417.75 606.87,334.61 "/>
   </g>
   <g>
    <polygon class="fil0" points="453.94,187.51 453.94,310.39 464.68,296.57 464.5,192.63 "/>
    <polygon id="_1_3" class="fil7 str3" points="453.94,187.51 453.94,310.39 464.68,296.57 464.5,192.63 "/>
   </g>
   <polygon class="fil0 str3" points="503.12,168.75 505.19,156.96 453.94,187.51 464.5,192.63 "/>
   <g>
    <polygon class="fil0" points="593.04,189.76 592.78,301.28 601.51,308.75 603.08,184.58 "/>
    <polygon id="_1_4" class="fil7 str3" points="593.04,189.76 592.78,301.28 601.51,308.75 603.08,184.58 "/>
   </g>
   <polygon class="fil0 str3" points="593.04,189.76 603.08,184.59 549.77,157.8 551.13,169.46 "/>
   <g>
    <polygon class="fil0" points="412.26,299.38 404.05,305.96 453.94,338.75 460.26,330.5 "/>
    <polygon id="_1_5" class="fil7 str3" points="412.26,299.38 404.05,305.96 453.94,338.75 460.26,330.5 "/>
   </g>
   <g>
    <polygon class="fil0" points="453.94,338.64 460.26,330.5 459.94,412.34 453.94,421.89 "/>
    <polygon id="_1_6" class="fil7 str3" points="453.94,338.64 460.26,330.5 459.94,412.34 453.94,421.89 "/>
   </g>
   <g>
    <polygon class="fil0" points="648.22,295.5 656.43,302.08 606.54,334.87 600.22,326.62 "/>
    <polygon id="_1_7" class="fil7 str3" points="648.22,295.5 656.43,302.08 606.54,334.87 600.22,326.62 "/>
   </g>
   <g>
    <polygon class="fil0" points="606.72,334.81 600.4,326.67 600.72,408.5 606.72,418.05 "/>
    <polygon id="_1_8" class="fil7 str3" points="606.72,334.81 600.4,326.67 600.72,408.5 606.72,418.05 "/>
   </g>
   <polygon class="fil8 str3" points="527.27,226.61 537.29,221.05 537.27,457.78 527.47,463.34 "/>
   <polygon class="fil8 str3" points="713.7,121.96 723.72,116.39 727.49,349.87 718.3,355.08 "/>
   <polygon class="fil8 str3" points="476.33,199.58 486.66,193.43 537.29,221.05 527.27,226.61 "/>
   <polygon class="fil8" points="527.27,226.61 476.34,199.58 476.34,434.51 527.47,463.34 "/>
   <polygon class="fil8" points="346.8,130.85 328.17,120.95 323.79,348.52 346.96,361.58 "/>
   <path class="fil8" d="M346.8 130.85l64.79 -37.4 -20.02 -11.36 -63.4 38.87 18.63 9.89zm-18.63 -9.89l18.63 9.89 -18.63 -9.89z"/>
   <polygon class="fil8" points="654.41,90.34 713.7,122.14 713.7,121.96 720.71,118.06 723.45,116.55 664.52,84.43 "/>
  </g>
  <path class="fil9" d="M346.98 811.57c-12.45,0 -21.79,-3.59 -28.03,-10.77 -6.22,-7.16 -9.34,-17.9 -9.34,-32.24 0,-13.59 3.23,-24.12 9.7,-31.58 6.46,-7.46 15.52,-11.19 27.19,-11.19 5.83,0 10.95,0.92 15.34,2.73 4.39,1.82 7.62,4.41 9.68,7.74l-8.74 8.68c-1.8,-2.65 -4.07,-4.71 -6.8,-6.15 -2.71,-1.46 -5.63,-2.19 -8.78,-2.19 -7.9,0 -14.05,2.75 -18.44,8.2 -4.37,5.45 -6.58,13.19 -6.58,23.18 0,10.93 2.21,19.1 6.58,24.58 4.39,5.45 10.93,8.2 19.63,8.2 3.73,0 7,-0.38 9.84,-1.1 2.83,-0.72 5.15,-1.34 6.96,-1.84l4.57 10.22c-1.64,0.5 -4.53,1.22 -8.66,2.15 -4.13,0.92 -8.84,1.38 -14.11,1.38zm11.15 -3.53l0 -39.35 11.63 0 0 39.35 -11.63 0zm-16.56 -28.19l0 -11.17 27.85 0 0 11.17 -27.85 0z"/>
  <path id="_1_9" class="fil9" d="M411.48 811.57c-20.53,0 -30.77,-14.11 -30.77,-42.3 0,-28.97 10.24,-43.46 30.77,-43.46 20.51,0 30.77,14.5 30.77,43.46 0,28.19 -10.27,42.3 -30.77,42.3zm0 -10.81c12.13,0 18.2,-10.5 18.2,-31.5 0,-21.77 -6.07,-32.66 -18.2,-32.66 -12.15,0 -18.2,10.89 -18.2,32.66 0,20.99 6.05,31.5 18.2,31.5z"/>
  <path id="_2" class="fil9" d="M466.35 810.39l0 -11.17 8.8 0c8.58,0 15.02,-2.45 19.35,-7.34 4.33,-4.89 6.5,-12.23 6.5,-22.01 0,-10.63 -2.17,-18.56 -6.5,-23.82 -4.33,-5.27 -10.77,-7.92 -19.35,-7.92l-8.58 0 -1.4 -11.15 9.98 0c25.44,0 38.17,14.3 38.17,42.88 0,27 -12.73,40.52 -38.17,40.52l-8.8 0zm-11.41 0l0 -83.4 12.23 0 0 83.4 -12.23 0z"/>
  <path id="_3" class="fil9" d="M526.61 810.39l0 -83.4 12.21 0 0 83.4 -12.21 0zm0 0l0 -11.17 55.21 0 0 11.17 -55.21 0zm0 -36.19l0 -11.15 44.63 0 0 11.15 -44.63 0zm0 -36.07l0 -11.15 55.21 0 0 11.15 -55.21 0z"/>
  <polygon id="_4" class="fil9" points="613.84,810.39 590.35,726.99 602.92,726.99 622.4,800.4 623.47,800.4 642.97,726.99 655.54,726.99 632.05,810.39 "/>
  <path id="_5" class="fil9" d="M690.55 811.57c-4.73,0 -9.16,-0.38 -13.29,-1.16 -4.13,-0.76 -7.96,-1.9 -11.49,-3.43l1.52 -11.87c4.31,1.84 8.46,3.25 12.49,4.21 4.01,0.96 7.92,1.44 11.71,1.44 5.49,0 9.56,-0.96 12.23,-2.89 2.65,-1.92 3.99,-4.83 3.99,-8.76 0,-4.97 -2.55,-8.6 -7.64,-10.91l-14.45 -6.6c-5.67,-2.59 -10.02,-5.69 -13.07,-9.32 -3.03,-3.65 -4.55,-8.18 -4.55,-13.57 0,-7.28 2.21,-12.93 6.58,-16.92 4.39,-3.99 10.61,-5.99 18.62,-5.99 5.59,0 10.55,0.82 14.86,2.47 4.31,1.64 8.46,4.33 12.45,8.06l-8.22 8.34c-3.45,-2.83 -6.66,-4.87 -9.66,-6.13 -2.99,-1.28 -6.11,-1.92 -9.36,-1.92 -4.03,0 -7.16,0.98 -9.36,2.91 -2.23,1.94 -3.33,4.81 -3.33,8.62 0,2.69 0.72,4.89 2.19,6.6 1.44,1.7 3.57,3.23 6.4,4.55l12.21 5.75c6.19,2.91 10.89,6.18 14.09,9.82 3.23,3.63 4.83,8.32 4.83,14.03 0,7.56 -2.47,13.21 -7.38,17 -4.91,3.77 -12.37,5.67 -22.35,5.67z"/>
 </g>
</svg>
