<?xml version="1.0" encoding="UTF-8"?>
<!DOCTYPE svg PUBLIC "-//W3C//DTD SVG 1.0//EN" "http://www.w3.org/TR/2001/REC-SVG-20010904/DTD/svg10.dtd">
<!-- Creator: CorelDRAW -->
<svg xmlns="http://www.w3.org/2000/svg" xml:space="preserve" width="150mm" height="150mm" version="1.0" style="shape-rendering:geometricPrecision; text-rendering:geometricPrecision; image-rendering:optimizeQuality; fill-rule:evenodd; clip-rule:evenodd"
viewBox="0 0 14984.82 14984.82"
 xmlns:xlink="http://www.w3.org/1999/xlink"
 xmlns:xodm="http://www.corel.com/coreldraw/odm/2003">
 <defs>
  <style type="text/css">
   <![CDATA[
    .fil0 {fill:#FEFEFE}
   ]]>
  </style>
 </defs>
 <g id="Camada_x0020_1">
  <metadata id="CorelCorpID_0Corel-Layer"/>
  <path class="fil0" d="M7492.42 0c4137.93,0 7492.4,3354.47 7492.4,7492.4 0,4137.94 -3354.47,7492.42 -7492.4,7492.42 -4137.94,0 -7492.42,-3354.48 -7492.42,-7492.42 0,-4137.93 3354.48,-7492.4 7492.42,-7492.4zm-3697.98 7224.45c0,-2126.96 1744.8,-3851.19 3897.13,-3851.19 2152.3,0 3897.1,1724.22 3897.1,3851.19 0,2126.95 -1744.8,3851.18 -3897.1,3851.18 -685.15,0 -1329.01,-174.75 -1888.41,-481.52 -3.48,-1.91 -295.11,-156.85 -298.94,-155.91l-1449.3 359.57 382.58 -1427.31c0.58,-2.15 -154.35,-277.28 -155.42,-279.2 -51.29,-91.32 -98.96,-184.92 -142.78,-280.58 -221.51,-483.73 -344.87,-1020.76 -344.87,-1586.22zm1613.26 4079.02c677.71,371.67 1457.74,583.37 2287.78,583.37 2607.51,0 4721.31,-2088.88 4721.31,-4665.69 0,-2576.79 -2113.8,-4665.67 -4721.31,-4665.67 -2607.52,0 -4721.33,2088.88 -4721.33,4665.67 0,820.58 214.39,1591.72 590.77,2261.62 1.32,2.35 4.68,4.5 4,7.1l-639.54 2434.66 2465.53 -628.1c4.7,-1.18 8.55,4.72 12.79,7.04zm423.05 -6288.38l508.03 2.98 532.32 1176.32c-46.29,175.85 -201.97,392.21 -417.47,630.7 513.99,864.58 1114.6,1341.51 1776.44,1544.53l549.76 -644.47 1226.67 542.42c32.55,401.21 -77.62,725.1 -394.26,936.91 -394.07,263.62 -828.22,280.98 -1274.69,138.93 -1099.94,-310.21 -2344.64,-1368.41 -2860.63,-2399.91 -378.2,-756.16 -350.53,-1354.08 353.83,-1928.42z"/>
 </g>
</svg>
