<?xml version="1.0" encoding="UTF-8"?>
<!DOCTYPE svg PUBLIC "-//W3C//DTD SVG 1.0//EN" "http://www.w3.org/TR/2001/REC-SVG-20010904/DTD/svg10.dtd">
<!-- Creator: CorelDRAW -->
<svg xmlns="http://www.w3.org/2000/svg" xml:space="preserve" width="210mm" height="297mm" version="1.0" style="shape-rendering:geometricPrecision; text-rendering:geometricPrecision; image-rendering:optimizeQuality; fill-rule:evenodd; clip-rule:evenodd"
viewBox="0 0 21000 29700"
 xmlns:xlink="http://www.w3.org/1999/xlink"
 xmlns:xodm="http://www.corel.com/coreldraw/odm/2003">
 <defs>
  <style type="text/css">
   <![CDATA[
    .fil0 {fill:#FEFEFE}
   ]]>
  </style>
 </defs>
 <g id="Camada_x0020_1">
  <metadata id="CorelCorpID_0Corel-Layer"/>
  <path class="fil0" d="M10500.01 7350c4142.12,0 7499.99,3357.87 7499.99,7499.99 0,4142.13 -3357.87,7500.01 -7499.99,7500.01 -4142.13,0 -7500.01,-3357.88 -7500.01,-7500.01 0,-4142.12 3357.88,-7499.99 7500.01,-7499.99zm-3701.73 7231.77c0,-2129.11 1746.57,-3855.09 3901.08,-3855.09 2154.48,0 3901.05,1725.97 3901.05,3855.09 0,2129.1 -1746.57,3855.08 -3901.05,3855.08 -685.84,0 -1330.36,-174.93 -1890.32,-482.01 -3.48,-1.91 -295.41,-157.01 -299.24,-156.07l-1450.77 359.93 382.97 -1428.76c0.58,-2.15 -154.51,-277.56 -155.58,-279.48 -51.34,-91.41 -99.06,-185.11 -142.92,-280.86 -221.73,-484.22 -345.22,-1021.79 -345.22,-1587.83zm1614.9 4083.15c678.4,372.05 1459.22,583.96 2290.1,583.96 2610.15,0 4726.09,-2091 4726.09,-4670.42 0,-2579.4 -2115.94,-4670.4 -4726.09,-4670.4 -2610.16,0 -4726.11,2091 -4726.11,4670.4 0,821.41 214.61,1593.33 591.37,2263.91 1.32,2.35 4.68,4.5 4,7.11l-640.19 2437.13 2468.03 -628.74c4.7,-1.18 8.56,4.72 12.8,7.05zm423.48 -6294.75l508.54 2.98 532.86 1177.51c-46.34,176.03 -202.17,392.61 -417.89,631.34 514.51,865.46 1115.73,1342.87 1778.24,1546.09l550.32 -645.12 1227.91 542.97c32.58,401.62 -77.7,725.83 -394.66,937.86 -394.47,263.89 -829.06,281.26 -1275.98,139.07 -1101.05,-310.52 -2347.02,-1369.8 -2863.53,-2402.34 -378.58,-756.93 -350.89,-1355.45 354.19,-1930.37l0 0.01z"/>
 </g>
</svg>
